<svg width="920" height="760" viewBox="0 0 920 760" fill="none" xmlns="http://www.w3.org/2000/svg">
  <rect width="920" height="760" rx="42" fill="#071B33"/>
  <circle cx="700" cy="126" r="180" fill="url(#heroGlow)" fill-opacity="0.72"/>
  <rect x="58" y="64" width="804" height="632" rx="34" fill="url(#heroPanel)"/>
  <rect x="104" y="112" width="280" height="194" rx="26" fill="#103E6B"/>
  <rect x="412" y="112" width="406" height="194" rx="26" fill="#0D335B"/>
  <rect x="104" y="338" width="280" height="310" rx="26" fill="#0C3157"/>
  <rect x="412" y="338" width="406" height="310" rx="26" fill="#123E6A"/>
  <rect x="138" y="150" width="126" height="126" rx="24" fill="#F7FBFF"/>
  <path d="M168 231V186L201 157L234 186V231" stroke="#F28B18" stroke-width="12" stroke-linejoin="round"/>
  <rect x="289" y="160" width="54" height="16" rx="8" fill="#D8E5F5"/>
  <rect x="289" y="194" width="72" height="16" rx="8" fill="#91B0D0"/>
  <rect x="289" y="228" width="46" height="16" rx="8" fill="#D8E5F5"/>
  <rect x="448" y="150" width="162" height="18" rx="9" fill="#D8E5F5"/>
  <rect x="448" y="188" width="226" height="18" rx="9" fill="#F28B18"/>
  <rect x="448" y="226" width="188" height="18" rx="9" fill="#D8E5F5"/>
  <path d="M166 563C191 481 244 406 317 354C355 327 398 307 442 292" stroke="#F28B18" stroke-width="12" stroke-linecap="round"/>
  <circle cx="166" cy="563" r="16" fill="#F28B18"/>
  <circle cx="270" cy="426" r="14" fill="#D8E5F5"/>
  <circle cx="442" cy="292" r="14" fill="#D8E5F5"/>
  <path d="M442 292L470 260" stroke="#F28B18" stroke-width="12" stroke-linecap="round"/>
  <path d="M470 260L512 272" stroke="#F28B18" stroke-width="12" stroke-linecap="round"/>
  <path d="M470 260L483 219" stroke="#F28B18" stroke-width="12" stroke-linecap="round"/>
  <rect x="464" y="390" width="126" height="126" rx="24" fill="#F7FBFF"/>
  <path d="M499 456H556" stroke="#0D3B66" stroke-width="12" stroke-linecap="round"/>
  <path d="M527 429V483" stroke="#0D3B66" stroke-width="12" stroke-linecap="round"/>
  <rect x="622" y="404" width="124" height="16" rx="8" fill="#D8E5F5"/>
  <rect x="622" y="438" width="164" height="16" rx="8" fill="#91B0D0"/>
  <rect x="622" y="472" width="102" height="16" rx="8" fill="#D8E5F5"/>
  <defs>
    <linearGradient id="heroPanel" x1="58" y1="64" x2="833" y2="696" gradientUnits="userSpaceOnUse">
      <stop stop-color="#0A2748"/>
      <stop offset="1" stop-color="#082846"/>
    </linearGradient>
    <radialGradient id="heroGlow" cx="0" cy="0" r="1" gradientUnits="userSpaceOnUse" gradientTransform="translate(700 126) rotate(90) scale(180)">
      <stop stop-color="#F28B18"/>
      <stop offset="1" stop-color="#F28B18" stop-opacity="0"/>
    </radialGradient>
  </defs>
</svg>
