<svg width="620" height="520" viewBox="0 0 620 520" fill="none" xmlns="http://www.w3.org/2000/svg">
  <rect width="620" height="520" rx="28" fill="url(#paint0_linear)"/>
  <rect x="42" y="56" width="220" height="120" rx="20" fill="white" fill-opacity="0.12"/>
  <rect x="286" y="56" width="292" height="190" rx="20" fill="white" fill-opacity="0.1"/>
  <rect x="42" y="202" width="220" height="248" rx="20" fill="white" fill-opacity="0.08"/>
  <rect x="286" y="272" width="292" height="178" rx="20" fill="white" fill-opacity="0.12"/>
  <path d="M111 145L152 103L194 145" stroke="#F28705" stroke-width="18" stroke-linecap="round" stroke-linejoin="round"/>
  <path d="M108 145V216H198V145" stroke="white" stroke-width="18" stroke-linecap="round" stroke-linejoin="round"/>
  <rect x="332" y="110" width="198" height="16" rx="8" fill="#DCE7F5"/>
  <rect x="332" y="144" width="144" height="16" rx="8" fill="#F28705"/>
  <rect x="332" y="178" width="168" height="16" rx="8" fill="#DCE7F5"/>
  <circle cx="153" cy="275" r="42" fill="#F28705"/>
  <rect x="112" y="339" width="82" height="16" rx="8" fill="#DCE7F5"/>
  <rect x="92" y="371" width="122" height="16" rx="8" fill="#DCE7F5"/>
  <path d="M321 387C354 336 430 323 484 357C525 382 549 425 553 450H322L321 387Z" fill="#F28705" fill-opacity="0.88"/>
  <path d="M348 430C368 392 420 381 456 404C474 416 486 433 492 450H348V430Z" fill="white" fill-opacity="0.92"/>
  <defs>
    <linearGradient id="paint0_linear" x1="30" y1="20" x2="594" y2="492" gradientUnits="userSpaceOnUse">
      <stop stop-color="#0D3B66"/>
      <stop offset="1" stop-color="#082846"/>
    </linearGradient>
  </defs>
</svg>
